<svg width="225" height="215" viewBox="0 0 225 215" fill="none" xmlns="http://www.w3.org/2000/svg">
<g opacity="0.5">
<circle cx="7.5" cy="7.5" r="7.5" fill="#AE9142"/>
<circle cx="7.5" cy="32.5" r="7.5" fill="#AE9142"/>
<circle cx="7.5" cy="57.5" r="7.5" fill="#AE9142"/>
<circle cx="7.5" cy="82.5" r="7.5" fill="#AE9142"/>
<circle cx="7.5" cy="107.5" r="7.5" fill="#AE9142"/>
<circle cx="7.5" cy="132.5" r="7.5" fill="#AE9142"/>
<circle cx="7.5" cy="157.5" r="7.5" fill="#AE9142"/>
<circle cx="7.5" cy="182.5" r="7.5" fill="#AE9142"/>
<circle cx="7.5" cy="207.5" r="7.5" fill="#AE9142"/>
<circle cx="37.5" cy="7.5" r="7.5" fill="#AE9142"/>
<circle cx="37.5" cy="32.5" r="7.5" fill="#AE9142"/>
<circle cx="37.5" cy="57.5" r="7.5" fill="#AE9142"/>
<circle cx="37.5" cy="82.5" r="7.5" fill="#AE9142"/>
<circle cx="37.5" cy="107.5" r="7.5" fill="#AE9142"/>
<circle cx="37.5" cy="132.5" r="7.5" fill="#AE9142"/>
<circle cx="37.5" cy="157.5" r="7.5" fill="#AE9142"/>
<circle cx="37.5" cy="182.5" r="7.5" fill="#AE9142"/>
<circle cx="37.5" cy="207.5" r="7.5" fill="#AE9142"/>
<circle cx="67.5" cy="7.5" r="7.5" fill="#AE9142"/>
<circle cx="67.5" cy="32.5" r="7.5" fill="#AE9142"/>
<circle cx="67.5" cy="57.5" r="7.5" fill="#AE9142"/>
<circle cx="67.5" cy="82.5" r="7.5" fill="#AE9142"/>
<circle cx="67.5" cy="107.5" r="7.5" fill="#AE9142"/>
<circle cx="67.5" cy="132.5" r="7.5" fill="#AE9142"/>
<circle cx="67.5" cy="157.5" r="7.5" fill="#AE9142"/>
<circle cx="67.5" cy="182.5" r="7.5" fill="#AE9142"/>
<circle cx="67.5" cy="207.5" r="7.5" fill="#AE9142"/>
<circle cx="97.5" cy="7.5" r="7.5" fill="#AE9142"/>
<circle cx="97.5" cy="32.5" r="7.5" fill="#AE9142"/>
<circle cx="97.5" cy="57.5" r="7.5" fill="#AE9142"/>
<circle cx="97.5" cy="82.5" r="7.5" fill="#AE9142"/>
<circle cx="97.5" cy="107.5" r="7.5" fill="#AE9142"/>
<circle cx="97.5" cy="132.5" r="7.5" fill="#AE9142"/>
<circle cx="97.5" cy="157.5" r="7.5" fill="#AE9142"/>
<circle cx="97.5" cy="182.5" r="7.5" fill="#AE9142"/>
<circle cx="97.5" cy="207.5" r="7.5" fill="#AE9142"/>
<circle cx="127.5" cy="7.5" r="7.5" fill="#AE9142"/>
<circle cx="127.5" cy="32.5" r="7.5" fill="#AE9142"/>
<circle cx="127.5" cy="57.5" r="7.5" fill="#AE9142"/>
<circle cx="127.5" cy="82.5" r="7.5" fill="#AE9142"/>
<circle cx="127.5" cy="107.5" r="7.5" fill="#AE9142"/>
<circle cx="127.5" cy="132.5" r="7.5" fill="#AE9142"/>
<circle cx="127.5" cy="157.5" r="7.5" fill="#AE9142"/>
<circle cx="127.5" cy="182.5" r="7.5" fill="#AE9142"/>
<circle cx="127.5" cy="207.5" r="7.5" fill="#AE9142"/>
<circle cx="157.5" cy="7.5" r="7.5" fill="#AE9142"/>
<circle cx="157.5" cy="32.5" r="7.5" fill="#AE9142"/>
<circle cx="157.5" cy="57.5" r="7.5" fill="#AE9142"/>
<circle cx="157.5" cy="82.5" r="7.5" fill="#AE9142"/>
<circle cx="157.5" cy="107.5" r="7.5" fill="#AE9142"/>
<circle cx="157.5" cy="132.5" r="7.5" fill="#AE9142"/>
<circle cx="157.5" cy="157.5" r="7.5" fill="#AE9142"/>
<circle cx="157.5" cy="182.5" r="7.5" fill="#AE9142"/>
<circle cx="157.5" cy="207.5" r="7.5" fill="#AE9142"/>
<circle cx="187.5" cy="7.5" r="7.5" fill="#AE9142"/>
<circle cx="187.5" cy="32.5" r="7.5" fill="#AE9142"/>
<circle cx="187.5" cy="57.5" r="7.5" fill="#AE9142"/>
<circle cx="187.5" cy="82.5" r="7.5" fill="#AE9142"/>
<circle cx="187.5" cy="107.5" r="7.5" fill="#AE9142"/>
<circle cx="187.5" cy="132.5" r="7.5" fill="#AE9142"/>
<circle cx="187.5" cy="157.5" r="7.5" fill="#AE9142"/>
<circle cx="187.5" cy="182.5" r="7.5" fill="#AE9142"/>
<circle cx="187.5" cy="207.5" r="7.5" fill="#AE9142"/>
<circle cx="217.5" cy="7.5" r="7.5" fill="#AE9142"/>
<circle cx="217.5" cy="32.5" r="7.5" fill="#AE9142"/>
<circle cx="217.5" cy="57.5" r="7.5" fill="#AE9142"/>
<circle cx="217.5" cy="82.5" r="7.5" fill="#AE9142"/>
<circle cx="217.5" cy="107.5" r="7.5" fill="#AE9142"/>
<circle cx="217.5" cy="132.5" r="7.5" fill="#AE9142"/>
<circle cx="217.5" cy="157.5" r="7.5" fill="#AE9142"/>
<circle cx="217.5" cy="182.5" r="7.5" fill="#AE9142"/>
<circle cx="217.5" cy="207.5" r="7.5" fill="#AE9142"/>
</g>
</svg>
