<svg width="416" height="416" viewBox="0 0 416 416" fill="none" xmlns="http://www.w3.org/2000/svg">
<path d="M346.667 173.333C346.667 106.427 292.587 52 225.333 52C194.153 51.976 164.159 63.9514 141.57 85.4438C118.98 106.936 105.527 136.297 104 167.44L70.72 211.293C66.56 216.667 70.72 225.333 78 225.333H104V277.333C104 296.573 119.427 312 138.667 312H156V364H277.333V282.707C318.413 263.293 346.667 221.867 346.667 173.333Z" fill="#AE9142"/>
<path d="M264.122 170.174C264.899 171.989 264.899 173.156 264.899 175.23V180.544L275.658 188.97C276.306 189.618 276.825 190.784 276.306 192.081L265.936 210.228C265.288 211.524 263.473 211.524 262.307 211.524L249.474 206.08C247.141 208.413 244.03 209.709 241.049 210.876L238.975 224.875C238.586 226.042 237.938 227.079 236.123 227.079H215.513C214.217 227.079 213.05 226.042 213.05 224.875L211.235 210.876C207.606 209.709 205.143 208.413 202.162 205.95L189.329 211.524C188.162 211.524 187.125 211.524 186.348 210.228L175.978 192.081C175.33 190.784 175.33 189.618 176.626 188.97L187.514 180.544C187.514 178.73 187.125 176.915 187.125 175.23C187.125 173.804 187.514 171.989 187.514 170.174L176.626 161.619C175.33 161.101 175.33 159.805 175.978 157.99L186.348 140.361C187.125 139.194 188.162 138.546 189.329 139.194L202.68 144.639C205.143 142.176 208.254 140.361 211.235 139.194L213.05 125.843C213.05 124.028 214.217 123.38 215.513 123.38H236.123C237.938 123.38 238.586 124.028 238.975 125.843L241.049 139.194C244.03 140.361 247.141 142.176 249.474 144.639L262.307 139.194C263.473 138.546 265.288 139.194 265.936 140.361L276.306 157.99C276.825 159.286 276.306 161.101 275.658 161.619L264.122 170.174Z" fill="white"/>
<circle cx="226.125" cy="175.334" r="15.5548" fill="#AE9142"/>
<path d="M277.892 118.62C277.85 119.568 277.606 120.073 277.173 120.971L276.064 123.273L278.965 129.166C279.11 129.582 279.091 130.196 278.596 130.649L270.318 136.343C269.767 136.769 268.981 136.391 268.476 136.147L264.055 131.111C262.558 131.635 260.94 131.547 259.406 131.43L255.586 137.059C255.174 137.483 254.677 137.797 253.891 137.418L244.966 133.117C244.405 132.847 244.116 132.154 244.36 131.649L246.496 125.208C245.167 123.945 244.371 122.87 243.594 121.181L236.874 120.917C236.369 120.673 235.92 120.457 235.853 119.733L235.15 109.711C235.14 109.014 235.383 108.509 236.08 108.499L242.554 107.123C242.932 106.337 243.143 105.47 243.494 104.74C243.792 104.123 244.339 103.418 244.718 102.632L241.788 96.6551C241.335 96.16 241.605 95.5987 242.265 94.9481L250.434 89.4783C251.015 89.1355 251.599 89.0712 251.969 89.5953L256.614 94.7392C258.195 94.1867 259.921 94.0501 261.455 94.1671L265.027 88.7642C265.406 87.9784 266.046 87.9412 266.608 88.2117L275.533 92.5129C276.319 92.8916 276.464 93.3076 276.254 94.1746L274.366 100.389C275.413 101.516 276.382 102.951 276.878 104.505L283.571 104.825C284.212 104.788 284.862 105.448 284.899 106.088L285.711 115.886C285.665 116.556 285.062 117.233 284.673 117.323L277.892 118.62Z" fill="white"/>
<circle cx="260.361" cy="112.924" r="7.47725" transform="rotate(25.7309 260.361 112.924)" fill="#AE9142"/>
</svg>
